<svg width="18" height="17" viewBox="0 0 18 17" fill="none" xmlns="http://www.w3.org/2000/svg">
<g id="ion:logo-apple">
<path id="Vector" d="M12.2802 4.4754C10.9344 4.4754 10.3657 5.07658 9.42841 5.07658C8.46745 5.07658 7.73446 4.47978 6.56823 4.47978C5.42669 4.47978 4.20939 5.13219 3.43635 6.24362C2.35089 7.81092 2.53514 10.7627 4.29317 13.2774C4.92202 14.1776 5.76181 15.1872 6.86329 15.1981H6.88332C7.84061 15.1981 8.12499 14.6113 9.44243 14.6044H9.46245C10.7602 14.6044 11.0205 15.1947 11.9738 15.1947H11.9939C13.0953 15.1837 13.9802 14.0651 14.609 13.1684C15.0616 12.5234 15.2299 12.1997 15.577 11.4701C13.0339 10.5665 12.6254 7.19162 15.1404 5.89772C14.3727 4.99784 13.2939 4.47665 12.2769 4.47665L12.2802 4.4754Z" fill="black"/>
<path id="Vector_2" d="M11.9838 1.19897C11.1828 1.24991 10.2482 1.72735 9.70077 2.3507C9.2041 2.91563 8.79555 3.75365 8.95577 4.56636H9.01985C9.873 4.56636 10.7462 4.08549 11.2562 3.46931C11.7475 2.88282 12.12 2.05168 11.9838 1.19897Z" fill="black"/>
</g>
</svg>
