<svg width="25" height="24" viewBox="0 0 25 24" fill="none" xmlns="http://www.w3.org/2000/svg">
<g id="fi_10703153">
<g id="Layer 2">
<path id="Vector" d="M23.2832 9.70235L21.4102 7.82881C21.1358 7.56514 20.7847 7.39559 20.4076 7.34468C20.0305 7.29377 19.647 7.36414 19.3125 7.54561C18.9827 7.71561 18.6074 7.77641 18.2407 7.71924C17.8741 7.66206 17.5351 7.48987 17.2727 7.22751C17.0102 6.96515 16.838 6.62619 16.7807 6.25956C16.7235 5.89293 16.7842 5.51758 16.9541 5.1877C17.1365 4.85355 17.2075 4.46991 17.1567 4.09263C17.1059 3.71535 16.9361 3.36411 16.6719 3.09004L14.7979 1.21704C14.4696 0.889211 14.0245 0.705078 13.5606 0.705078C13.0966 0.705078 12.6516 0.889211 12.3233 1.21704L1.7168 11.8234C1.55426 11.9859 1.42532 12.1788 1.33735 12.3911C1.24938 12.6034 1.2041 12.8309 1.2041 13.0607C1.2041 13.2906 1.24938 13.5181 1.33735 13.7304C1.42532 13.9427 1.55426 14.1356 1.7168 14.2981L3.5898 16.1716C3.8641 16.4354 4.21524 16.605 4.59236 16.6559C4.96949 16.7068 5.35303 16.6364 5.68746 16.4548C6.01731 16.2848 6.39263 16.224 6.75928 16.2812C7.12592 16.3383 7.46492 16.5105 7.72734 16.7729C7.98976 17.0353 8.16203 17.3742 8.21929 17.7408C8.27654 18.1075 8.21583 18.4828 8.0459 18.8127C7.86352 19.1469 7.79255 19.5305 7.84331 19.9078C7.89407 20.2851 8.06392 20.6363 8.32813 20.9104L10.2021 22.7834C10.5305 23.111 10.9755 23.2951 11.4394 23.2951C11.9034 23.2951 12.3483 23.111 12.6767 22.7834L23.2832 12.177C23.4457 12.0145 23.5747 11.8216 23.6627 11.6093C23.7506 11.397 23.7959 11.1695 23.7959 10.9397C23.7959 10.7099 23.7506 10.4823 23.6627 10.27C23.5747 10.0577 23.4457 9.86481 23.2832 9.70235Z" fill="#FFCB27"/>
<g id="Group">
<path id="Vector_2" d="M12.5 16C12.2349 15.9997 11.9807 15.8943 11.7932 15.7068C11.6057 15.5193 11.5003 15.2651 11.5 15V9C11.5 8.73478 11.6054 8.48043 11.7929 8.29289C11.9804 8.10536 12.2348 8 12.5 8C12.7652 8 13.0196 8.10536 13.2071 8.29289C13.3946 8.48043 13.5 8.73478 13.5 9V15C13.4997 15.2651 13.3943 15.5193 13.2068 15.7068C13.0193 15.8943 12.7651 15.9997 12.5 16Z" fill="white"/>
<path id="Vector_3" d="M9.67212 12.543C10.3625 12.543 10.9221 11.9833 10.9221 11.293C10.9221 10.6026 10.3625 10.043 9.67212 10.043C8.98176 10.043 8.42212 10.6026 8.42212 11.293C8.42212 11.9833 8.98176 12.543 9.67212 12.543Z" fill="white"/>
<path id="Vector_4" d="M15.3281 13.957C16.0185 13.957 16.5781 13.3974 16.5781 12.707C16.5781 12.0167 16.0185 11.457 15.3281 11.457C14.6378 11.457 14.0781 12.0167 14.0781 12.707C14.0781 13.3974 14.6378 13.957 15.3281 13.957Z" fill="white"/>
</g>
<path id="Vector_5" d="M11.4394 23.2952C11.2096 23.2956 10.982 23.2507 10.7697 23.1629C10.5573 23.075 10.3644 22.9461 10.2021 22.7834L8.32811 20.9104C8.06389 20.6364 7.89403 20.2851 7.84327 19.9078C7.7925 19.5305 7.86348 19.1469 8.04586 18.8127C8.21578 18.4829 8.27649 18.1075 8.21923 17.7409C8.16197 17.3743 7.98971 17.0353 7.72729 16.773C7.46488 16.5106 7.1259 16.3384 6.75926 16.2812C6.39263 16.2241 6.0173 16.2848 5.68746 16.4548C5.35307 16.6365 4.96949 16.707 4.59234 16.6561C4.21518 16.6052 3.86404 16.4355 3.5898 16.1716L1.7168 14.2981C1.55426 14.1356 1.42532 13.9427 1.33735 13.7304C1.24938 13.5181 1.2041 13.2906 1.2041 13.0608C1.2041 12.831 1.24938 12.6034 1.33735 12.3911C1.42532 12.1788 1.55426 11.9859 1.7168 11.8235L12.3232 1.21704C12.6515 0.889211 13.0965 0.705078 13.5605 0.705078C14.0245 0.705078 14.4695 0.889211 14.7978 1.21704L16.6718 3.09004C16.936 3.36411 17.1059 3.71535 17.1567 4.09264C17.2074 4.46994 17.1364 4.85358 16.9541 5.18774C16.7841 5.51762 16.7234 5.89295 16.7807 6.25958C16.838 6.6262 17.0102 6.96515 17.2726 7.22751C17.535 7.48986 17.874 7.66206 18.2407 7.71924C18.6073 7.77643 18.9826 7.71564 19.3125 7.54565C19.6469 7.36418 20.0304 7.29381 20.4075 7.34472C20.7846 7.39563 21.1358 7.56518 21.4101 7.82885L23.2831 9.70239C23.4457 9.86485 23.5746 10.0577 23.6626 10.27C23.7505 10.4823 23.7958 10.7099 23.7958 10.9397C23.7958 11.1695 23.7505 11.3971 23.6626 11.6094C23.5746 11.8217 23.4457 12.0145 23.2831 12.177L14.0302 21.4299C13.8895 21.5701 13.6989 21.6487 13.5002 21.6485C13.3016 21.6483 13.1111 21.5693 12.9707 21.4289C12.8302 21.2884 12.7512 21.098 12.751 20.8993C12.7508 20.7007 12.8295 20.5101 12.9697 20.3694L22.2226 11.1165C22.2458 11.0933 22.2642 11.0658 22.2768 11.0355C22.2893 11.0052 22.2958 10.9727 22.2958 10.94C22.2958 10.9072 22.2893 10.8747 22.2768 10.8444C22.2642 10.8141 22.2458 10.7866 22.2226 10.7635L20.3495 8.88945C20.2993 8.85216 20.2389 8.83117 20.1764 8.82933C20.1139 8.82749 20.0523 8.84488 20 8.87915C19.3874 9.19478 18.6905 9.30762 18.0096 9.20138C17.3288 9.09515 16.6994 8.77532 16.2121 8.28808C15.7249 7.80084 15.4051 7.17139 15.2988 6.49056C15.1926 5.80974 15.3054 5.11277 15.6211 4.50024C15.6554 4.44789 15.6729 4.38626 15.6712 4.32366C15.6694 4.26106 15.6485 4.2005 15.6113 4.15014L13.7373 2.27758C13.7141 2.25436 13.6865 2.23594 13.6562 2.22338C13.6259 2.21081 13.5934 2.20434 13.5605 2.20434C13.5277 2.20434 13.4952 2.21081 13.4649 2.22338C13.4345 2.23594 13.407 2.25436 13.3838 2.27758L2.7773 12.884C2.75409 12.9072 2.73568 12.9347 2.72311 12.965C2.71055 12.9953 2.70408 13.0277 2.70408 13.0605C2.70408 13.0933 2.71055 13.1258 2.72311 13.1561C2.73568 13.1864 2.75409 13.2139 2.7773 13.237L4.6503 15.111C4.70052 15.1483 4.76098 15.1693 4.82351 15.1712C4.88605 15.173 4.94764 15.1556 4.99996 15.1213C5.61249 14.8057 6.30946 14.6929 6.99028 14.7991C7.67111 14.9053 8.30056 15.2252 8.7878 15.7124C9.27505 16.1996 9.59486 16.8291 9.7011 17.5099C9.80734 18.1907 9.6945 18.8877 9.37887 19.5002C9.3445 19.5526 9.327 19.6142 9.32875 19.6768C9.33049 19.7394 9.35139 19.8 9.38863 19.8503L11.2626 21.7229C11.2858 21.7461 11.3134 21.7645 11.3437 21.7771C11.3741 21.7897 11.4066 21.7961 11.4394 21.7961C11.4722 21.7961 11.5047 21.7897 11.5351 21.7771C11.5654 21.7645 11.5929 21.7461 11.6161 21.7229C11.6857 21.653 11.7684 21.5976 11.8595 21.5597C11.9505 21.5219 12.0481 21.5023 12.1467 21.5022C12.2453 21.5021 12.343 21.5215 12.4341 21.5592C12.5252 21.5968 12.608 21.6521 12.6777 21.7219C12.7475 21.7916 12.8027 21.8744 12.8404 21.9655C12.8781 22.0566 12.8975 22.1543 12.8974 22.2529C12.8973 22.3515 12.8777 22.4491 12.8399 22.5401C12.802 22.6312 12.7466 22.7139 12.6767 22.7834C12.5144 22.9461 12.3215 23.075 12.1092 23.1629C11.8968 23.2507 11.6692 23.2956 11.4394 23.2952Z" fill="#FBBC05"/>
</g>
</g>
</svg>
