<svg width="24" height="24" viewBox="0 0 24 24" fill="none" xmlns="http://www.w3.org/2000/svg">
<g id="fi_726448">
<path id="Vector" d="M22.5 3.75H8.25C8.0505 3.75 7.86 3.8295 7.719 3.969L6.75 4.9395L5.781 3.969C5.64 3.8295 5.4495 3.75 5.25 3.75H1.5C0.6735 3.75 0 4.4235 0 5.25V18.75C0 19.578 0.6735 20.25 1.5 20.25H5.25C5.4495 20.25 5.64 20.1705 5.781 20.031L6.75 19.0605L7.719 20.0295C7.86 20.1705 8.0505 20.25 8.25 20.25H22.5C23.328 20.25 24 19.578 24 18.75V5.25C24 4.4235 23.328 3.75 22.5 3.75Z" fill="#6979F8"/>
<g id="Group">
<path id="Vector_2" d="M12.75 11.25C11.5095 11.25 10.5 10.2405 10.5 9C10.5 7.7595 11.5095 6.75 12.75 6.75C13.9905 6.75 15 7.7595 15 9C15 10.2405 13.9905 11.25 12.75 11.25ZM12.75 8.25C12.336 8.25 12 8.586 12 9C12 9.414 12.336 9.75 12.75 9.75C13.164 9.75 13.5 9.414 13.5 9C13.5 8.586 13.164 8.25 12.75 8.25Z" fill="#FAFAFA"/>
<path id="Vector_3" d="M17.25 17.25C16.0095 17.25 15 16.2405 15 15C15 13.7595 16.0095 12.75 17.25 12.75C18.4905 12.75 19.5 13.7595 19.5 15C19.5 16.2405 18.4905 17.25 17.25 17.25ZM17.25 14.25C16.8375 14.25 16.5 14.5875 16.5 15C16.5 15.4125 16.8375 15.75 17.25 15.75C17.6625 15.75 18 15.4125 18 15C18 14.5875 17.6625 14.25 17.25 14.25Z" fill="#FAFAFA"/>
<path id="Vector_4" d="M11.2499 17.2502C11.0804 17.2502 10.9109 17.1932 10.7699 17.0762C10.4519 16.8107 10.4084 16.3382 10.6739 16.0202L18.1739 7.02016C18.4409 6.70066 18.9134 6.66166 19.2299 6.92416C19.5479 7.18966 19.5899 7.66216 19.3244 7.98166L11.8244 16.9817C11.6774 17.1572 11.4644 17.2502 11.2499 17.2502Z" fill="#FAFAFA"/>
<path id="Vector_5" d="M7.5 6.75H6V8.25H7.5V6.75Z" fill="#FAFAFA"/>
<path id="Vector_6" d="M7.5 15.75H6V17.25H7.5V15.75Z" fill="#FAFAFA"/>
<path id="Vector_7" d="M7.5 12.75H6V14.25H7.5V12.75Z" fill="#FAFAFA"/>
<path id="Vector_8" d="M7.5 9.75H6V11.25H7.5V9.75Z" fill="#FAFAFA"/>
</g>
</g>
</svg>
