<svg width="32" height="32" viewBox="0 0 32 32" fill="none" xmlns="http://www.w3.org/2000/svg">
<g id="fi_6815068" clip-path="url(#clip0_780_13384)">
<g id="Group">
<path id="Vector" d="M26.6016 26.605C32.4586 20.748 32.4586 11.252 26.6016 5.395C20.7446 -0.461979 11.2486 -0.46198 5.39162 5.395C-0.465358 11.252 -0.465358 20.748 5.39162 26.605C11.2486 32.462 20.7446 32.462 26.6016 26.605Z" fill="#D793FF"/>
<path id="Vector_2" fill-rule="evenodd" clip-rule="evenodd" d="M30.9609 17.0831C30.4314 24.5041 24.5039 30.4315 17.083 30.961L7.50385 21.3818C7.38298 21.282 7.30566 21.1311 7.30566 20.9628V17.9615C8.27441 17.8332 9.02179 17.004 9.02179 16.0001C9.02179 15.911 9.01579 15.8233 9.00441 15.7374L7.30566 14.0386V11.0375C7.30566 10.7382 7.54991 10.4941 7.84916 10.4941H12.3704L13.24 11.3638V10.4941H24.1511C24.3193 10.4941 24.4702 10.5714 24.5701 10.6922L30.9609 17.0831Z" fill="#9747FF"/>
<path id="Vector_3" fill-rule="evenodd" clip-rule="evenodd" d="M12.3704 13.7339V15.0263C12.3704 15.2665 12.565 15.4611 12.8052 15.4611C13.0454 15.4611 13.24 15.2665 13.24 15.0263V13.7339C13.24 13.4939 13.0454 13.2993 12.8052 13.2993C12.565 13.2993 12.3704 13.4939 12.3704 13.7339ZM12.3704 16.9738V18.2664C12.3704 18.5062 12.565 18.7012 12.8052 18.7012C13.0454 18.7012 13.24 18.5062 13.24 18.2664V16.9738C13.24 16.7336 13.0454 16.539 12.8052 16.539C12.565 16.539 12.3704 16.7336 12.3704 16.9738ZM16.8419 13.9723C16.7444 13.8747 16.6094 13.8142 16.4601 13.8142C16.3112 13.8142 16.176 13.8747 16.0783 13.9723C15.9808 14.07 15.9203 14.205 15.9203 14.3541C15.9203 14.5033 15.9808 14.6383 16.0783 14.736C16.176 14.8338 16.3111 14.8941 16.4601 14.8941C16.6094 14.8941 16.7444 14.8338 16.8419 14.736C16.9397 14.6383 17.0002 14.5033 17.0002 14.3541C17.0002 14.205 16.9397 14.07 16.8419 13.9723ZM19.6607 13.293C19.7948 13.0941 20.0646 13.0417 20.2635 13.1757C20.4624 13.3098 20.515 13.5798 20.3809 13.7785L17.0912 18.641C16.9571 18.8399 16.6873 18.8924 16.4884 18.7585C16.2895 18.6243 16.237 18.3545 16.3713 18.1556L19.6607 13.293ZM20.6887 17.2642C20.5914 17.1666 20.4562 17.1062 20.3075 17.1062C20.1582 17.1062 20.023 17.1666 19.9255 17.2642C19.8277 17.3618 19.7672 17.4969 19.7672 17.6458C19.7672 17.7951 19.8277 17.9303 19.9255 18.0276C20.023 18.1256 20.1582 18.186 20.3075 18.186C20.4563 18.186 20.5914 18.1256 20.6887 18.0276C20.7865 17.9303 20.847 17.7951 20.847 17.6458C20.8471 17.4969 20.7866 17.3619 20.6887 17.2642ZM20.3075 16.2366C19.9179 16.2366 19.5659 16.3945 19.3107 16.6496C19.0557 16.9046 18.8977 17.2569 18.8977 17.6458C18.8977 18.0353 19.0557 18.3874 19.3107 18.6426C19.5659 18.8976 19.9179 19.0555 20.3075 19.0555C20.6964 19.0555 21.0485 18.8975 21.3035 18.6426C21.5587 18.3874 21.7167 18.0353 21.7167 17.6458C21.7167 17.2569 21.5587 16.9046 21.3035 16.6496C21.0485 16.3945 20.6964 16.2366 20.3075 16.2366ZM16.4601 12.9448C16.8495 12.9448 17.2017 13.1026 17.4567 13.3576C17.7117 13.6127 17.8697 13.965 17.8697 14.3541C17.8697 14.7433 17.7117 15.0956 17.4567 15.3507C17.2017 15.6058 16.8496 15.7635 16.4601 15.7635C16.071 15.7635 15.7189 15.6058 15.4639 15.3507C15.2086 15.0956 15.0509 14.7433 15.0509 14.3541C15.0509 13.965 15.2086 13.6127 15.4639 13.3576C15.7189 13.1026 16.071 12.9448 16.4601 12.9448ZM24.6944 17.9615V20.9628C24.6944 21.2621 24.4502 21.5062 24.151 21.5062H13.24V20.2138C13.24 19.9735 13.0454 19.779 12.8052 19.779C12.5651 19.779 12.3704 19.9735 12.3704 20.2138V21.5062H7.84916C7.54985 21.5062 7.30566 21.2621 7.30566 20.9628V17.9615C8.27441 17.8332 9.02179 17.004 9.02179 16.0001C9.02179 14.9962 8.27441 14.1671 7.30566 14.0386V11.0375C7.30566 10.7382 7.54991 10.4941 7.84916 10.4941H12.3704V11.7866C12.3704 12.0266 12.565 12.2212 12.8052 12.2212C13.0454 12.2212 13.24 12.0266 13.24 11.7866V10.4941H24.1511C24.4502 10.4941 24.6945 10.7382 24.6945 11.0375V14.0386C23.7257 14.1671 22.9785 14.9961 22.9785 16.0001C22.9785 17.004 23.7257 17.8331 24.6944 17.9615Z" fill="white"/>
</g>
</g>
<defs>
<clipPath id="clip0_780_13384">
<rect width="32" height="32" fill="white"/>
</clipPath>
</defs>
</svg>
