<svg width="46" height="45" viewBox="0 0 46 45" fill="none" xmlns="http://www.w3.org/2000/svg">
<g id="Social Logins">
<path id="Vector" d="M21.125 20.625V25.125H28.625C28.25 27 26.375 30.75 21.125 30.75C16.625 30.75 13.0625 27 13.0625 22.5C13.0625 18 16.625 14.25 21.125 14.25C23.75 14.25 25.4375 15.375 26.375 16.3125L29.9375 12.9375C27.6875 10.6875 24.6875 9.375 21.125 9.375C13.8125 9.375 8 15.1875 8 22.5C8 29.8125 13.8125 35.625 21.125 35.625C28.625 35.625 33.6875 30.375 33.6875 22.875C33.6875 21.9375 33.6875 21.375 33.5 20.625H21.125Z" fill="#ED0017"/>
</g>
</svg>
