<svg width="25" height="24" viewBox="0 0 25 24" fill="none" xmlns="http://www.w3.org/2000/svg">
<g id="history-fill">
<path id="Vector" d="M12.5 2C18.0228 2 22.5 6.47715 22.5 12C22.5 17.5228 18.0228 22 12.5 22C6.97715 22 2.5 17.5228 2.5 12H4.5C4.5 16.4183 8.08172 20 12.5 20C16.9183 20 20.5 16.4183 20.5 12C20.5 7.58172 16.9183 4 12.5 4C10.0361 4 7.83243 5.11383 6.36492 6.86543L8.5 9H2.5V3L4.94656 5.44648C6.78002 3.33509 9.4841 2 12.5 2ZM13.5 7L13.4998 11.585L16.7426 14.8284L15.3284 16.2426L11.4998 12.413L11.5 7H13.5Z" fill="#424244"/>
</g>
</svg>
