<svg width="25" height="24" viewBox="0 0 25 24" fill="none" xmlns="http://www.w3.org/2000/svg">
<g id="home">
<g id="Vector">
<path d="M12.7603 4.7475C12.6905 4.68074 12.5976 4.64348 12.5011 4.64348C12.4045 4.64348 12.3116 4.68074 12.2418 4.7475L3.61215 12.9914C3.5755 13.0265 3.54635 13.0686 3.52644 13.1152C3.50654 13.1619 3.49631 13.2121 3.49637 13.2628L3.49496 21C3.49496 21.3978 3.653 21.7794 3.9343 22.0607C4.21561 22.342 4.59714 22.5 4.99496 22.5H9.49965C9.69856 22.5 9.88933 22.421 10.03 22.2803C10.1706 22.1397 10.2497 21.9489 10.2497 21.75V15.375C10.2497 15.2755 10.2892 15.1802 10.3595 15.1098C10.4298 15.0395 10.5252 15 10.6247 15H14.3747C14.4741 15 14.5695 15.0395 14.6398 15.1098C14.7101 15.1802 14.7497 15.2755 14.7497 15.375V21.75C14.7497 21.9489 14.8287 22.1397 14.9693 22.2803C15.11 22.421 15.3007 22.5 15.4997 22.5H20.0025C20.4003 22.5 20.7818 22.342 21.0631 22.0607C21.3444 21.7794 21.5025 21.3978 21.5025 21V13.2628C21.5025 13.2121 21.4923 13.1619 21.4724 13.1152C21.4525 13.0686 21.4233 13.0265 21.3867 12.9914L12.7603 4.7475Z" fill="#1C926D"/>
<path d="M23.5111 11.4445L20.0048 8.09016V3C20.0048 2.80109 19.9258 2.61032 19.7851 2.46967C19.6445 2.32902 19.4537 2.25 19.2548 2.25H17.0048C16.8059 2.25 16.6151 2.32902 16.4745 2.46967C16.3338 2.61032 16.2548 2.80109 16.2548 3V4.5L13.5398 1.90406C13.2857 1.64719 12.9079 1.5 12.4997 1.5C12.0928 1.5 11.7159 1.64719 11.4618 1.90453L1.49153 11.4436C1.19996 11.7248 1.1634 12.1875 1.42871 12.4922C1.49534 12.5691 1.57691 12.6316 1.66848 12.676C1.76004 12.7204 1.85968 12.7457 1.96133 12.7503C2.06297 12.755 2.1645 12.7389 2.25973 12.7031C2.35497 12.6672 2.44191 12.6124 2.51528 12.5419L12.2418 3.2475C12.3116 3.18074 12.4045 3.14348 12.5011 3.14348C12.5976 3.14348 12.6905 3.18074 12.7603 3.2475L22.4878 12.5419C22.6311 12.6793 22.823 12.7543 23.0215 12.7504C23.22 12.7465 23.4088 12.6641 23.5467 12.5212C23.8345 12.2231 23.8106 11.7309 23.5111 11.4445Z" fill="#1C926D"/>
</g>
</g>
</svg>
