<svg width="21" height="21" viewBox="0 0 21 21" fill="none" xmlns="http://www.w3.org/2000/svg">
<g id="phone">
<path id="Vector" d="M18.8333 14.6V17.1C18.8343 17.3321 18.7867 17.5618 18.6938 17.7744C18.6008 17.9871 18.4644 18.178 18.2934 18.3349C18.1224 18.4918 17.9205 18.6112 17.7006 18.6856C17.4808 18.7599 17.2478 18.7875 17.0167 18.7666C14.4524 18.488 11.9892 17.6118 9.825 16.2083C7.81152 14.9289 6.10445 13.2218 4.825 11.2083C3.41665 9.03432 2.5402 6.55914 2.26667 3.98331C2.24584 3.75287 2.27323 3.52061 2.34708 3.30133C2.42094 3.08205 2.53964 2.88055 2.69564 2.70966C2.85163 2.53877 3.0415 2.40224 3.25316 2.30875C3.46481 2.21526 3.69362 2.16686 3.925 2.16665H6.425C6.82942 2.16267 7.22149 2.30588 7.52813 2.56959C7.83478 2.8333 8.03506 3.19952 8.09167 3.59998C8.19719 4.40003 8.39288 5.18558 8.675 5.94165C8.78712 6.23992 8.81139 6.56407 8.74492 6.87571C8.67846 7.18735 8.52405 7.4734 8.3 7.69998L7.24167 8.75831C8.42796 10.8446 10.1554 12.572 12.2417 13.7583L13.3 12.7C13.5266 12.4759 13.8126 12.3215 14.1243 12.2551C14.4359 12.1886 14.7601 12.2129 15.0583 12.325C15.8144 12.6071 16.5999 12.8028 17.4 12.9083C17.8048 12.9654 18.1745 13.1693 18.4388 13.4812C18.7031 13.7931 18.8435 14.1913 18.8333 14.6Z" stroke="#787878" stroke-width="1.5" stroke-linecap="round" stroke-linejoin="round"/>
</g>
</svg>
