<svg width="12" height="12" viewBox="0 0 12 12" fill="none" xmlns="http://www.w3.org/2000/svg">
<g id="trending-down">
<path id="Vector" fill-rule="evenodd" clip-rule="evenodd" d="M0.859835 3.10983C1.00628 2.96339 1.24372 2.96339 1.39017 3.10983L4.23477 5.95444L4.2348 5.95447C4.26963 5.98931 4.31097 6.01694 4.35647 6.03579C4.40198 6.05464 4.45075 6.06434 4.5 6.06434C4.54925 6.06434 4.59802 6.05464 4.64353 6.03579C4.68903 6.01694 4.73037 5.98931 4.7652 5.95447L4.76523 5.95444L5.95441 4.76526C5.95442 4.76525 5.95443 4.76524 5.95444 4.76523C6.05891 4.66075 6.18293 4.57787 6.31942 4.52132C6.45593 4.46477 6.60224 4.43566 6.75 4.43566C6.89776 4.43566 7.04407 4.46477 7.18058 4.52132C7.31707 4.57787 7.44109 4.66075 7.54556 4.76523C7.54557 4.76524 7.54558 4.76525 7.54559 4.76526L10.5 7.71967V6C10.5 5.79289 10.6679 5.625 10.875 5.625C11.0821 5.625 11.25 5.79289 11.25 6V8.625C11.25 8.83211 11.0821 9 10.875 9H8.25C8.04289 9 7.875 8.83211 7.875 8.625C7.875 8.41789 8.04289 8.25 8.25 8.25H9.96967L7.01523 5.29556L7.0152 5.29553C6.98037 5.26069 6.93903 5.23306 6.89353 5.21421C6.84802 5.19536 6.79925 5.18566 6.75 5.18566C6.70075 5.18566 6.65198 5.19536 6.60647 5.21421C6.56097 5.23306 6.51963 5.26069 6.4848 5.29553L6.48477 5.29556L5.29559 6.48474C5.19112 6.58924 5.06709 6.67213 4.93058 6.72868C4.79407 6.78523 4.64776 6.81434 4.5 6.81434C4.35224 6.81434 4.20593 6.78523 4.06942 6.72868C3.93291 6.67213 3.80888 6.58924 3.70441 6.48474L0.859835 3.64017C0.713388 3.49372 0.713388 3.25628 0.859835 3.10983Z" fill="#15A35F"/>
</g>
</svg>
